<?xml version="1.0" standalone="no"?><!DOCTYPE svg PUBLIC "-//W3C//DTD SVG 1.1//EN" "http://www.w3.org/Graphics/SVG/1.1/DTD/svg11.dtd"><svg t="1486558015822" class="icon" style="" viewBox="0 0 1025 1024" version="1.1" xmlns="http://www.w3.org/2000/svg" p-id="1207" xmlns:xlink="http://www.w3.org/1999/xlink" width="46.044921875" height="46"><defs><style type="text/css"></style></defs><path d="M612.393107 528.099896c-19.887265-18.409517-45.80816-31.958611-77.76677-40.649325-31.958611-8.690715-66.091944-11.30079-102.395912-7.832272-55.451337 5.722954-101.392351 23.31695-137.823042 52.786076-36.428647 29.467082-52.902579 62.351585-49.421797 98.655553 2.242172 23.868806 13.305868 45.00899 33.19109 63.418507 19.887265 18.411561 45.80816 31.958611 77.76677 40.649325 31.958611 8.690715 66.091944 11.30079 102.395913 7.834316 55.451337-5.724998 101.392351-23.318994 137.823042-52.786076 36.428647-29.467082 52.902579-62.351585 49.421796-98.655553-2.242172-23.87085-13.303824-45.00899-33.19109-63.420551z m-83.199489 123.137533v-0.020439c-11.196551 25.358818-30.838547 44.011561-58.925988 55.960271-28.087441 11.948711-55.939832 13.438723-83.55513 4.470036-26.611737-8.451577-44.95176-24.181525-55.020071-47.1878-10.066267-23.006275-9.258922-46.317094 2.422035-69.934499 11.683002-23.130954 30.517653-40.412232 56.503953-51.845876 25.984255-11.431601 52.160639-13.794363 78.51893-7.082156 27.60099 7.21501 47.306347 22.072208 59.114028 44.577725 11.811768 22.505517 12.122443 46.194459 0.942243 71.062738z" fill="#333333" p-id="1208"></path><path d="M459.071079 594.524998c-3.480782-1.240655-7.024926-1.17525-10.632431 0.18804s-6.278898 3.662691-8.022355 6.892072c-4.232942 7.715768-2.618251 13.312 4.846116 16.794826 3.480782 1.240655 7.088287 1.17525 10.820471-0.18804s6.468982-3.662691 8.208351-6.892072v-0.020439c1.99077-3.229381 2.430212-6.524168 1.316279-9.880271-1.113932-3.356104-3.294786-5.653461-6.536431-6.892072z" fill="#333333" p-id="1209"></path><path d="M511.761091 0C229.126872 0 0.006361 229.120511 0.006361 511.754731s229.120511 511.754731 511.75473 511.75473 511.754731-229.120511 511.754731-511.75473S794.395311 0 511.761091 0z m234.902739 645.054595c-9.20578 17.782036-22.754874 34.813956-40.649326 51.091672-17.894451 16.277717-38.844551 30.887601-62.852343 43.823521-24.007792 12.937964-52.109541 23.255633-84.305245 30.957094-32.195705 7.701461-65.826236 11.558323-100.891593 11.570587-35.065357 0.014307-69.260008-4.149142-102.583952-12.490347-33.323944-8.341206-63.230467-19.907705-89.715481-34.695409-26.487058-14.787705-47.813238-33.561038-63.982627-56.315913-16.167345-22.754874-24.251018-47.56388-24.251018-74.427018 0-28.604551 8.641661-59.067018 25.922938-91.387401 17.281277-32.322427 41.838882-64.399585 73.672814-96.233517 42.028966-42.028966 84.487154-71.369325 127.378651-88.025165 42.891497-16.65584 73.542004-15.785134 91.951521 2.612119 16.167345 15.917988 18.652743 41.902244 7.456192 77.956855-0.989253 3.480782-1.113932 5.968224-0.37608 7.456191 0.739896 1.490012 1.984639 2.360719 3.738315 2.61212a15.77287 15.77287 0 0 0 5.410236-0.18804 42.832224 42.832224 0 0 0 5.034155-1.316279l2.233996-0.75216c34.562555-14.677333 65.149701-22.017022 91.763481-22.017022s45.634427 7.582914 57.066028 22.748743c11.196551 15.666587 11.196551 37.802156 0 66.404662-0.500758 3.229381-1.058747 5.716822-1.67192 7.456192-0.61113 1.741413-0.055186 3.294786 1.67192 4.658076 1.727106 1.365333 3.217118 2.297357 4.470036 2.798115 1.252918 0.500758 3.370411 1.246786 6.350435 2.233996 14.176575 4.470036 26.981685 10.311537 38.413286 17.524503 11.433645 7.21501 21.383409 17.344639 29.849293 30.392975 8.467928 13.048335 12.692695 27.531497 12.678388 43.447441l0.020439 0.063361c0 16.905198-4.60289 34.249836-13.808671 52.031872l0.006132 0.008176z m6.518036-244.31291c3.104703 15.304814 2.297357 29.912655-2.422036 43.823521-1.99077 5.722954-5.661637 9.949764-11.006467 12.678387-5.346874 2.728623-10.883832 3.22325-16.606787 1.48388-5.724998-1.99077-9.949764-5.661637-12.678387-11.008511s-3.22325-10.883832-1.48388-16.606786c4.970794-15.666587 1.984639-29.467082-8.960511-41.399441-10.94515-11.934403-24.251018-16.285892-39.917605-13.054468-5.974355 1.240655-11.570587 0.243226-16.794826-2.986155-5.222196-3.229381-8.326898-7.832271-9.316152-13.808671-1.240655-5.974355-0.243226-11.509269 2.986156-16.606786 3.229381-5.095473 7.832271-8.265581 13.80867-9.504192 14.914427-3.229381 29.710307-2.548758 44.387641 2.048 14.677333 4.594715 27.237174 12.743792 37.683609 24.441102v0.020439c10.440303 11.685046 17.215872 25.17691 20.320575 40.479681z m84.119249 71.794459c-2.242172 6.712208-6.468982 11.683002-12.678387 14.914427-6.211449 3.229381-12.678387 3.724008-19.404902 1.48388-6.726515-2.242172-11.697309-6.468982-14.914427-12.678387-3.217118-6.211449-3.836423-12.678387-1.857917-19.404902 6.963609-20.388024 8.208351-41.771433 3.738316-64.148184-4.470036-22.378794-14.4198-42.02079-29.849294-58.925988-15.415186-17.156599-33.818571-29.027641-55.208111-35.61517-21.389541-6.585485-42.897629-7.644232-64.524264-3.174195-6.963609 1.490012-13.430547 0.306587-19.404902-3.55232-5.974355-3.856862-9.706539-9.267098-11.196551-16.230706s-0.306587-13.36923 3.552319-19.218906c3.856862-5.849677 9.267098-9.518499 16.230707-11.008511 30.581014-6.460806 60.918802-5.034156 91.011321 4.281996 30.092519 9.316152 55.95414 26.039441 77.580775 50.173956v0.020439c21.640942 23.868806 35.627433 51.531114 41.965605 82.988966s4.658076 61.489054-5.034156 90.093605h-0.006132z" fill="#333333" p-id="1210"></path><path d="M416.541355 612.051545c-8.451577-3.480782-17.532679-3.607505-27.237174-0.37608-9.706539 3.231425-17.164774 8.948248-22.370619 17.148423-5.471553 8.451577-7.088287 16.968559-4.846116 25.546859 2.242172 8.578299 7.589046 14.859242 16.042667 18.840782 8.451577 3.983585 17.714587 4.296303 27.780854 0.9402 10.066267-3.356104 17.839265-9.258922 23.310819-17.714587h0.020439c5.222196-8.451577 6.585485-17.03192 4.096-25.732855-2.493573-8.700934-8.091848-14.918515-16.79687-18.652742z" fill="#333333" p-id="1211"></path></svg>